<!-- Generated by IcoMoon.io -->
<svg version="1.1" xmlns="http://www.w3.org/2000/svg" width="38" height="64" viewBox="0 0 38 64">
<path d="M22.393 49.143c0 0.286-0.143 0.607-0.357 0.821l-1.786 1.786c-0.214 0.214-0.536 0.357-0.821 0.357s-0.607-0.143-0.821-0.357l-16.643-16.643c-0.214-0.214-0.357-0.536-0.357-0.821s0.143-0.607 0.357-0.821l16.643-16.643c0.214-0.214 0.536-0.357 0.821-0.357s0.607 0.143 0.821 0.357l1.786 1.786c0.214 0.214 0.357 0.536 0.357 0.821s-0.143 0.607-0.357 0.821l-14.036 14.036 14.036 14.036c0.214 0.214 0.357 0.536 0.357 0.821zM36.107 49.143c0 0.286-0.143 0.607-0.357 0.821l-1.786 1.786c-0.214 0.214-0.536 0.357-0.821 0.357s-0.607-0.143-0.821-0.357l-16.643-16.643c-0.214-0.214-0.357-0.536-0.357-0.821s0.143-0.607 0.357-0.821l16.643-16.643c0.214-0.214 0.536-0.357 0.821-0.357s0.607 0.143 0.821 0.357l1.786 1.786c0.214 0.214 0.357 0.536 0.357 0.821s-0.143 0.607-0.357 0.821l-14.036 14.036 14.036 14.036c0.214 0.214 0.357 0.536 0.357 0.821z"></path>
</svg>
